<svg width="951" height="43" viewBox="0 0 951 43" fill="none" xmlns="http://www.w3.org/2000/svg">
<path d="M6.61603 0.511719L944.199 0.511719C946.261 0.511719 947.009 0.688456 947.762 1.02033C948.516 1.35221 949.107 1.83922 949.51 2.45978C949.913 3.08033 950.128 3.69586 950.128 5.39329V42.3991H0.6875L0.6875 5.39329C0.6875 3.69586 0.902143 3.08033 1.3052 2.45978C1.70825 1.83922 2.29972 1.35221 3.05336 1.02033C3.80701 0.688456 4.55455 0.511719 6.61603 0.511719Z" fill="#E2E3E5"/>
<path d="M26.355 26.4057C29.5477 26.4057 32.1359 24.2746 32.1359 21.6458C32.1359 19.017 29.5477 16.8859 26.355 16.8859C23.1624 16.8859 20.5742 19.017 20.5742 21.6458C20.5742 24.2746 23.1624 26.4057 26.355 26.4057Z" fill="#C4C6CA"/>
<path d="M47.1636 26.4057C50.3563 26.4057 52.9444 24.2746 52.9444 21.6458C52.9444 19.017 50.3563 16.8859 47.1636 16.8859C43.971 16.8859 41.3828 19.017 41.3828 21.6458C41.3828 24.2746 43.971 26.4057 47.1636 26.4057Z" fill="#C4C6CA"/>
<path d="M67.9761 26.4057C71.1688 26.4057 73.7569 24.2746 73.7569 21.6458C73.7569 19.017 71.1688 16.8859 67.9761 16.8859C64.7835 16.8859 62.1953 19.017 62.1953 21.6458C62.1953 24.2746 64.7835 26.4057 67.9761 26.4057Z" fill="#C4C6CA"/>
<path d="M99.8471 11.9355L924.043 11.9355C925.074 11.9355 925.448 12.0239 925.824 12.1899C926.201 12.3558 926.497 12.5993 926.698 12.9096C926.9 13.2199 927.007 13.5276 927.007 14.3763V28.5345C927.007 29.3832 926.9 29.6909 926.698 30.0012C926.497 30.3115 926.201 30.555 925.824 30.7209C925.448 30.8869 925.074 30.9753 924.043 30.9753H99.8471C98.8163 30.9753 98.4426 30.8869 98.0657 30.7209C97.6889 30.555 97.3932 30.3115 97.1917 30.0012C96.9901 29.6909 96.8828 29.3832 96.8828 28.5345V14.3763C96.8828 13.5276 96.9901 13.2199 97.1917 12.9096C97.3932 12.5993 97.6889 12.3558 98.0657 12.1899C98.4426 12.0239 98.8163 11.9355 99.8471 11.9355Z" fill="white"/>
</svg>
